PathFileType	4	(X/Y/Z)	C:/Users/opensim2020/Desktop/walking_exp_matlab/subject02_walking06_straight_03.trc																																																																																																																									
DataRate	CameraRate	NumFrames	NumMarkers	Units	OrigDataRate	OrigDataStartFrame	OrigNumFrames																																																																																																																					
100	100	5	41	mm	100	2202	223																																																																																																																					
Frame#	Time	LFHD			RFHD			LBHD			RBHD			C7			T10			CLAV			STRN			RBAK			LSHO			LUPA			LELB			LFRM			LWRA			LWRB			LFIN			RSHO			RUPA			RELB			RFRM			RWRA			RWRB			RFIN			LASI			RASI			LPSI			RPSI			LTHI			LKNE			LTIB			LANK			LHEE			LTOE			RTHI			RKNE			RTIB			RANK			RHEE			RTOE			*39			*40		
		X1	Y1	Z1	X2	Y2	Z2	X3	Y3	Z3	X4	Y4	Z4	X5	Y5	Z5	X6	Y6	Z6	X7	Y7	Z7	X8	Y8	Z8	X9	Y9	Z9	X10	Y10	Z10	X11	Y11	Z11	X12	Y12	Z12	X13	Y13	Z13	X14	Y14	Z14	X15	Y15	Z15	X16	Y16	Z16	X17	Y17	Z17	X18	Y18	Z18	X19	Y19	Z19	X20	Y20	Z20	X21	Y21	Z21	X22	Y22	Z22	X23	Y23	Z23	X24	Y24	Z24	X25	Y25	Z25	X26	Y26	Z26	X27	Y27	Z27	X28	Y28	Z28	X29	Y29	Z29	X30	Y30	Z30	X31	Y31	Z31	X32	Y32	Z32	X33	Y33	Z33	X34	Y34	Z34	X35	Y35	Z35	X36	Y36	Z36	X37	Y37	Z37	X38	Y38	Z38	X39	Y39	Z39	X40	Y40	Z40	X41	Y41	Z41
																																																																																																																												
196	1.95	971.27264	1739.6106	1284.2196	1001.98724	1728.11987	1423.10498	848.47021	1654.4021	1306.82617	868.0083	1640.22009	1447.72192	823.8089	1518.93567	1385.02246	771.46747	1246.77783	1399.13855	963.01227	1452.37231	1354.03699	1016.57666	1280.45813	1370.90649	778.97522	1351.57922	1464.37952	864.0954	1484.64343	1197.39429	795.55603	1291.01685	1135.02063	760.46167	1156.3645	1137.64807	723.72302	1031.2135	1124.62463	742.229	891.55634	1139.10645	692.2323	912.01141	1122.10388	685.50134	846.31464	1114.40466	933.78113	1499.77783	1554.31348	970.57214	1319.9928	1654.45093	1043.62354	1189.62488	1677.81018	1128.83984	1101.70398	1677.2168	1224.60779	1016.40088	1634.99536	1197.94934	991.26636	1678.79102	1262.27991	961.62671	1667.65845	1006.01831	983.84113	1268.1156	994.98212	970.172	1525.22107	792.62103	1024.59302	1339.96423	783.74084	1026.47839	1453.26697	1006.64087	683.35101	1194.84338	1051.36499	488.26654	1231.45325	1072.15588	295.97733	1237.83923	1170.14587	93.72529	1255.02917	1163.43945	61.93381	1315.32288	1317.92456	95.66255	1203.34155	870.54602	669.57043	1573.18652	826.89551	463.60931	1528.80615	743.38971	293.62241	1530.22876	686.11353	108.16757	1487.72998	643.82208	58.99466	1430.4502	829.10193	40.25114	1507.29944	885.44904	1801.93665	1391.33899	2845.89673	1034.07886	-3357.39526
197	1.96	981.14471	1738.23633	1281.57495	1012.41382	1726.60034	1420.27136	857.84424	1653.60547	1304.6427	877.9917	1639.58826	1445.62012	833.15735	1517.88977	1382.8252	780.9975	1245.36499	1396.87402	972.35272	1451.31055	1351.59863	1026.09888	1279.479	1368.42139	788.50195	1350.46619	1462.40735	873.33472	1483.50623	1195.00049	805.64587	1289.49451	1132.54871	770.28735	1154.85034	1135.22803	733.85754	1029.98535	1122.94836	751.65759	889.85712	1136.65051	701.88885	911.04944	1119.71106	694.25739	845.05817	1112.04211	943.4483	1498.44678	1551.95752	980.51837	1318.5553	1651.55542	1054.62598	1188.87537	1675.05872	1140.57117	1101.57361	1673.84351	1237.08582	1017.4325	1631.16943	1210.65039	991.68799	1674.80566	1275.25317	962.99249	1663.51013	1016.22375	983.22961	1265.77563	1005.23053	969.06873	1522.95337	802.42834	1023.112	1337.84143	793.99091	1025.00867	1450.97668	1019.45532	682.92798	1193.37402	1062.96606	487.61685	1229.91052	1083.04028	295.18408	1235.88501	1180.28149	92.64075	1254.078	1172.25598	60.27662	1313.85364	1328.87488	94.99572	1205.1842	878.22321	669.43561	1571.78149	833.04608	463.6441	1528.22485	747.01929	294.83731	1529.71008	687.01575	109.96242	1487.67944	644.36768	61.35414	1430.8241	829.2182	40.17089	1507.46338	896.25983	1801.13428	1388.93848	2845.198	1033.80371	-3360.40845
198	1.97	990.98694	1736.75732	1278.79407	1022.81647	1725.11975	1417.39209	867.26007	1653.13318	1302.6936	887.99579	1638.99707	1443.4115	842.49377	1516.71851	1380.31982	790.73816	1244.14258	1394.72546	981.7345	1450.34753	1349.11804	1035.69897	1278.65283	1365.79761	798.14557	1349.56543	1460.52222	882.53607	1482.45911	1192.5271	815.60663	1288.12671	1129.99207	780.49261	1153.57642	1132.97473	744.00317	1028.59705	1120.62231	761.62341	888.40399	1134.37268	711.9834	909.72559	1117.1311	704.24451	843.66608	1110.16699	953.16357	1497.34326	1549.54773	990.38617	1317.19971	1648.43286	1065.22046	1187.87622	1672.01257	1151.79382	1101.24438	1670.36255	1248.91968	1018.13049	1627.23804	1222.81567	992.00671	1670.85559	1287.66675	963.98669	1659.505	1026.58521	982.75513	1263.1123	1015.76886	968.09344	1520.22205	812.48364	1021.78937	1335.76221	804.51141	1024.05627	1449.08374	1032.38904	682.53619	1191.49731	1074.53931	486.88528	1228.20898	1093.03467	294.26645	1233.94141	1188.70654	90.9021	1253.31165	1179.55518	58.24769	1312.97009	1338.06238	93.51403	1207.0802	886.40063	669.5545	1570.5553	839.70068	463.72952	1527.58081	751.01953	296.17969	1529.31702	688.19403	112.19267	1488.05884	644.84351	63.97195	1430.93921	829.23523	39.9183	1507.52319	906.98108	1800.38843	1386.49695	2845.10669	1034.02625	-3360.21045
199	1.98	1001.04779	1735.41565	1276.08008	1033.2146	1723.74548	1414.43176	876.70203	1652.41162	1300.31689	897.99304	1638.39905	1441.16858	851.85455	1515.69458	1377.92358	800.7926	1243.09692	1392.59534	991.16669	1449.46716	1346.52258	1045.41919	1277.86572	1363.0874	807.96564	1348.62341	1458.29138	891.80206	1481.46606	1190.01514	825.42285	1286.81421	1127.23157	790.78894	1152.08044	1130.25562	754.52081	1027.32227	1117.96582	772.17944	887.05457	1132.40796	722.76752	908.32117	1114.40588	714.68829	842.22131	1108.00647	962.94232	1496.34558	1547.13232	1000.29645	1315.95789	1645.35156	1075.4093	1186.86426	1668.85486	1162.62952	1100.76758	1666.79407	1260.42847	1018.77081	1623.40942	1234.35242	992.04944	1666.69324	1299.50476	964.95068	1655.46155	1037.16833	982.38287	1260.20984	1026.39783	967.26831	1517.7572	822.75659	1020.52478	1333.52686	815.24408	1022.92505	1446.71655	1045.03259	682.06024	1190.01563	1085.81787	486.08514	1226.44727	1102.11926	293.03271	1232.02478	1195.65149	88.79861	1252.92249	1185.39001	55.80682	1312.03674	1345.59204	91.15462	1208.89294	894.80066	669.58936	1569.21216	846.7691	463.89026	1527.12524	755.40741	297.63104	1528.91211	689.52863	114.57478	1488.41577	645.61688	67.28724	1431.4928	829.56567	40.06636	1507.89209	917.56458	1799.55847	1383.76685	2845.12622	1033.79468	-3360.35742
200	1.99	1010.90552	1734.20007	1273.19641	1043.55164	1722.40967	1411.40259	886.17822	1651.85193	1298.07178	907.96344	1637.8302	1438.73352	861.30084	1514.7887	1375.66882	810.81152	1241.85815	1390.16956	1000.62628	1448.67932	1343.80786	1055.27234	1277.25305	1360.29504	817.54395	1347.07214	1455.41895	900.995	1480.5708	1187.43213	836.19647	1285.55896	1124.78638	801.51263	1150.66565	1127.52783	765.66034	1025.84387	1115.2179	783.49146	885.55054	1130.0033	734.24329	906.79626	1111.49524	726.07507	840.51685	1105.59253	972.56488	1495.42834	1544.44702	1010.10248	1314.78418	1642.13574	1085.28711	1185.82263	1665.60071	1173.0022	1100.18945	1663.177	1271.26538	1018.98041	1619.44629	1245.30786	991.82703	1662.38843	1310.51001	965.11096	1651.20227	1047.9093	982.05237	1257.03137	1037.05298	966.66193	1515.86755	833.39862	1019.25928	1331.03235	826.07605	1021.96204	1444.20117	1057.45923	681.50684	1188.10876	1096.91577	485.16055	1224.59619	1110.7229	291.83716	1230.55945	1201.24207	86.34694	1252.79346	1189.8313	53.38734	1311.84338	1351.44482	87.5979	1210.47766	903.56494	669.5072	1567.55408	854.2655	464.05969	1526.53943	760.09241	299.24097	1528.4646	690.81543	117.00143	1488.62549	646.42737	70.77448	1431.92395	829.79474	40.13734	1508.18738	928.22742	1798.86609	1381.14404	2845.95728	1034.04553	-3357.48462
